<?xml version="1.0" encoding="iso-8859-1"?>
<!-- Generator: Adobe Illustrator 24.3.0, SVG Export Plug-In . SVG Version: 6.00 Build 0)  -->
<svg version="1.1" id="Layer_1" xmlns="http://www.w3.org/2000/svg" xmlns:xlink="http://www.w3.org/1999/xlink" x="0px" y="0px"
	 viewBox="0 0 1920 1080" style="enable-background:new 0 0 1920 1080;" xml:space="preserve">
<g style="opacity:0.05;">
	<path style="fill:#999999;" d="M117.737,333.519H48.852l-12.17,34.564H0.414L63.7,198.184h39.188l63.043,169.899h-36.268
		L117.737,333.519z M108.487,307.475l-25.314-72.536l-25.315,72.536H108.487z"/>
	<path style="fill:#999999;" d="M305.282,294.208c6.245,7.71,9.372,16.758,9.372,27.141c0,14.444-4.831,25.843-14.483,34.199
		c-9.657,8.359-23.653,12.535-41.988,12.535H184.43V196.236h72.292c17.362,0,30.708,3.814,40.041,11.44
		c9.329,7.629,13.996,18.339,13.996,32.13c0,10.71-2.799,19.473-8.398,26.288c-5.598,6.815-12.942,11.28-22.028,13.388
		C290.716,281.593,299.034,286.503,305.282,294.208z M218.75,268.285h30.913c8.599,0,15.129-1.905,19.594-5.72
		c4.461-3.812,6.694-9.288,6.694-16.431c0-7.139-2.191-12.657-6.572-16.552s-11.117-5.842-20.203-5.842H218.75V268.285z
		 M272.3,334.127c4.868-3.974,7.302-9.773,7.302-17.403c0-7.626-2.476-13.509-7.424-17.647c-4.952-4.138-11.969-6.207-21.055-6.207
		H218.75v47.222h32.617C260.453,340.091,267.432,338.105,272.3,334.127z"/>
	<path style="fill:#999999;" d="M463.008,204.999c13.061,7.466,23.368,17.891,30.913,31.278
		c7.546,13.387,11.318,28.521,11.318,45.396c0,16.879-3.772,32.05-11.318,45.518c-7.545,13.471-17.853,23.938-30.913,31.399
		c-13.064,7.466-27.627,11.197-43.692,11.197s-30.631-3.731-43.692-11.197c-13.064-7.462-23.367-17.929-30.913-31.399
		c-7.545-13.468-11.318-28.639-11.318-45.518c0-16.875,3.773-32.009,11.318-45.396c7.546-13.388,17.849-23.813,30.913-31.278
		c13.061-7.462,27.627-11.197,43.692-11.197S449.944,197.537,463.008,204.999z M392.785,232.261
		c-7.629,4.545-13.593,11.075-17.891,19.595c-4.302,8.519-6.451,18.461-6.451,29.817c0,11.36,2.149,21.298,6.451,29.817
		c4.297,8.52,10.261,15.054,17.891,19.595c7.625,4.545,16.468,6.815,26.531,6.815c10.06,0,18.902-2.271,26.532-6.815
		c7.625-4.541,13.589-11.075,17.891-19.595c4.298-8.52,6.45-18.457,6.45-29.817c0-11.356-2.152-21.299-6.45-29.817
		c-4.302-8.52-10.265-15.05-17.891-19.595c-7.629-4.541-16.472-6.815-26.532-6.815C409.253,225.445,400.411,227.72,392.785,232.261z
		"/>
	<path style="fill:#999999;" d="M564.143,196.236v100.771c0,13.471,2.959,23.572,8.885,30.304
		c5.921,6.736,14.483,10.102,25.68,10.102c11.033,0,19.511-3.365,25.436-10.102c5.922-6.731,8.884-16.833,8.884-30.304V196.236
		h34.078v100.771c0,15.905-2.963,29.33-8.885,40.284c-5.925,10.953-14.118,19.107-24.584,24.462
		c-10.467,5.355-22.356,8.033-35.66,8.033c-20.61,0-37.082-6.165-49.412-18.499c-12.334-12.33-18.499-30.427-18.499-54.28V196.236
		H564.143z"/>
	<path style="fill:#999999;" d="M814.124,196.236v27.262h-47.465v144.585h-34.321V223.498h-47.221v-27.262H814.124z"/>
	<path style="fill:#999999;" d="M919.273,196.236v100.771c0,13.471,2.959,23.572,8.885,30.304
		c5.922,6.736,14.482,10.102,25.68,10.102c11.033,0,19.51-3.365,25.436-10.102c5.921-6.731,8.884-16.833,8.884-30.304V196.236
		h34.077v100.771c0,15.905-2.963,29.33-8.884,40.284c-5.926,10.953-14.118,19.107-24.585,24.462
		c-10.466,5.355-22.355,8.033-35.659,8.033c-20.609,0-37.082-6.165-49.412-18.499c-12.334-12.33-18.499-30.427-18.499-54.28V196.236
		H919.273z"/>
	<path style="fill:#999999;" d="M1163.898,345.324c-4.382,7.386-10.874,13.308-19.473,17.769
		c-8.604,4.466-19.069,6.694-31.399,6.694c-12.171,0-23.045-2.069-32.617-6.207c-9.577-4.138-17.244-10.102-23.002-17.891
		c-5.763-7.789-9.048-16.875-9.858-27.262h36.512c0.81,6.979,3.609,12.778,8.397,17.403c4.784,4.625,11.155,6.938,19.107,6.938
		c7.139,0,12.615-1.905,16.43-5.72c3.812-3.812,5.721-8.722,5.721-14.727c0-5.355-1.544-9.774-4.625-13.266
		c-3.084-3.488-6.979-6.287-11.684-8.398c-4.708-2.106-11.196-4.541-19.473-7.302c-10.71-3.567-19.473-7.097-26.288-10.588
		c-6.815-3.488-12.619-8.558-17.404-15.214c-4.788-6.651-7.18-15.334-7.18-26.044c0-14.765,5.313-26.41,15.942-34.93
		c10.627-8.52,24.706-12.779,42.232-12.779c18.172,0,32.654,4.381,43.448,13.144c10.79,8.763,16.917,20.446,18.377,35.051h-36.998
		c-0.974-6.165-3.571-11.234-7.789-15.213c-4.222-3.975-9.979-5.964-17.282-5.964c-6.328,0-11.44,1.666-15.335,4.99
		c-3.895,3.328-5.842,8.154-5.842,14.482c0,5.032,1.499,9.212,4.504,12.536c3,3.327,6.815,6.047,11.439,8.154
		c4.625,2.11,10.912,4.465,18.864,7.059c11.033,3.895,19.998,7.546,26.897,10.953c6.895,3.408,12.778,8.52,17.646,15.335
		s7.303,15.741,7.303,26.775C1170.471,329.868,1168.28,337.942,1163.898,345.324z"/>
</g>
</svg>
