<?xml version="1.0" encoding="utf-8"?>
<!-- Generator: Adobe Illustrator 24.3.0, SVG Export Plug-In . SVG Version: 6.00 Build 0)  -->
<svg version="1.1" id="Layer_1" xmlns="http://www.w3.org/2000/svg" xmlns:xlink="http://www.w3.org/1999/xlink" x="0px" y="0px"
	 viewBox="0 0 1920 1080" style="enable-background:new 0 0 1920 1080;" xml:space="preserve">
<style type="text/css">
	.st0{opacity:5.000000e-02;}
	.st1{fill:#999999;}
</style>
<g class="st0">
	<path class="st1" d="M138.1,299.7v27.1H64.6v45.8h58.9v26.2H64.6v72H29.8V299.7H138.1z"/>
	<path class="st1" d="M196.4,326.9v44.4h61.8v26.2h-61.8v46.1h69.2v27.4H161.6V299.7h104.1v27.1H196.4z"/>
	<path class="st1" d="M397.7,436.4h-70l-12.4,34.4h-36.8l64.3-169.2h39.8l64,169.2h-36.8L397.7,436.4z M388.3,410.5l-25.7-72.2
		l-25.7,72.2H388.3z"/>
	<path class="st1" d="M584.2,299.7v27.1H536v144h-34.9v-144h-48v-27.1H584.2z"/>
	<path class="st1" d="M637.1,299.7v100.4c0,13.4,3,23.5,9,30.2c6,6.7,14.7,10.1,26.1,10.1c11.2,0,19.8-3.4,25.8-10.1
		c6-6.7,9-16.8,9-30.2V299.7h34.6v100.4c0,15.8-3,29.2-9,40.1c-6,10.9-14.3,19-25,24.4c-10.6,5.3-22.7,8-36.2,8
		c-20.9,0-37.7-6.1-50.2-18.4c-12.5-12.3-18.8-30.3-18.8-54.1V299.7H637.1z"/>
	<path class="st1" d="M863.4,470.8l-40.8-66.7h-15.3v66.7h-34.9V299.7h66.5c20.3,0,35.7,4.8,46.4,14.5c10.6,9.7,16,22.5,16,38.3
		c0,12.9-3.7,23.8-11,32.5c-7.3,8.7-17.9,14.5-31.8,17.5l43.5,68.4H863.4z M807.2,380.7h28.7c19.9,0,29.9-8.6,29.9-25.9
		c0-8.2-2.4-14.7-7.3-19.3c-4.9-4.6-12.4-6.9-22.6-6.9h-28.7V380.7z"/>
	<path class="st1" d="M959.5,326.9v44.4h61.8v26.2h-61.8v46.1h69.2v27.4H924.7V299.7h104.1v27.1H959.5z"/>
	<path class="st1" d="M1167.8,448.2c-4.5,7.4-11,13.3-19.8,17.7c-8.7,4.4-19.4,6.7-31.9,6.7c-12.4,0-23.4-2.1-33.1-6.2
		c-9.7-4.1-17.5-10.1-23.4-17.8c-5.9-7.8-9.2-16.8-10-27.1h37.1c0.8,6.9,3.7,12.7,8.5,17.3c4.9,4.6,11.3,6.9,19.4,6.9
		c7.3,0,12.8-1.9,16.7-5.7c3.9-3.8,5.8-8.7,5.8-14.7c0-5.3-1.6-9.7-4.7-13.2c-3.1-3.5-7.1-6.3-11.9-8.4c-4.8-2.1-11.4-4.5-19.8-7.3
		c-10.9-3.6-19.8-7.1-26.7-10.5c-6.9-3.5-12.8-8.5-17.7-15.1c-4.9-6.6-7.3-15.3-7.3-25.9c0-14.7,5.4-26.3,16.2-34.8
		c10.8-8.5,25.1-12.7,42.9-12.7c18.5,0,33.2,4.4,44.1,13.1c11,8.7,17.2,20.4,18.7,34.9h-37.6c-1-6.1-3.6-11.2-7.9-15.1
		c-4.3-4-10.1-5.9-17.6-5.9c-6.4,0-11.6,1.7-15.6,5c-4,3.3-5.9,8.1-5.9,14.4c0,5,1.5,9.2,4.6,12.5c3,3.3,6.9,6,11.6,8.1
		c4.7,2.1,11.1,4.4,19.2,7c11.2,3.9,20.3,7.5,27.3,10.9c7,3.4,13,8.5,17.9,15.3c4.9,6.8,7.4,15.7,7.4,26.7
		C1174.4,432.8,1172.2,440.8,1167.8,448.2z"/>
</g>
</svg>
