<?xml version="1.0" encoding="utf-8"?>
<!-- Generator: Adobe Illustrator 25.2.0, SVG Export Plug-In . SVG Version: 6.00 Build 0)  -->
<svg version="1.1" id="Layer_1" xmlns="http://www.w3.org/2000/svg" xmlns:xlink="http://www.w3.org/1999/xlink" x="0px" y="0px"
	 viewBox="0 0 580 36" style="enable-background:new 0 0 580 36;" xml:space="preserve">
<style type="text/css">
	.st0{fill:url(#SVGID_1_);}
	.st1{fill:url(#SVGID_2_);}
	.st2{fill:url(#SVGID_3_);}
	.st3{fill:url(#SVGID_4_);}
	.st4{fill:url(#SVGID_5_);}
</style>
<g>
	<linearGradient id="SVGID_1_" gradientUnits="userSpaceOnUse" x1="564.4533" y1="18.2432" x2="31.6533" y2="15.9695">
		<stop  offset="0" style="stop-color:#4F67D2"/>
		<stop  offset="1" style="stop-color:#23A8FE"/>
	</linearGradient>
	<path class="st0" d="M573.5,30.5h-359c-3.6,0-6.5-5.4-6.5-12l0,0c0-6.7,2.9-13.9,6.5-13.9h359c3.6,0,6.5,7.2,6.5,13.9l0,0
		C580,25.1,577.1,30.5,573.5,30.5z"/>
	<linearGradient id="SVGID_2_" gradientUnits="userSpaceOnUse" x1="564.4495" y1="19.1372" x2="31.6495" y2="16.8635">
		<stop  offset="0" style="stop-color:#4F67D2"/>
		<stop  offset="1" style="stop-color:#23A8FE"/>
	</linearGradient>
	<path class="st1" d="M191.5,30.5h-14c-3.6,0-6.5-5.4-6.5-12l0,0c0-6.7,2.9-13.9,6.5-13.9h14c3.6,0,6.5,7.2,6.5,13.9l0,0
		C198,25.1,195.1,30.5,191.5,30.5z"/>
	<linearGradient id="SVGID_3_" gradientUnits="userSpaceOnUse" x1="564.4486" y1="19.3548" x2="31.6486" y2="17.0812">
		<stop  offset="0" style="stop-color:#4F67D2"/>
		<stop  offset="1" style="stop-color:#23A8FE"/>
	</linearGradient>
	<path class="st2" d="M146.5,30.5h-26c-3.6,0-6.5-5.4-6.5-12l0,0c0-6.7,2.9-13.9,6.5-13.9h26c3.6,0,6.5,7.2,6.5,13.9l0,0
		C153,25.1,150.1,30.5,146.5,30.5z"/>
	<linearGradient id="SVGID_4_" gradientUnits="userSpaceOnUse" x1="564.4475" y1="19.6002" x2="31.6475" y2="17.3265">
		<stop  offset="0" style="stop-color:#4F67D2"/>
		<stop  offset="1" style="stop-color:#23A8FE"/>
	</linearGradient>
	<path class="st3" d="M89.5,30.5h-27c-3.6,0-6.5-5.4-6.5-12l0,0c0-6.7,2.9-13.9,6.5-13.9h27c3.6,0,6.5,7.2,6.5,13.9l0,0
		C96,25.1,93.1,30.5,89.5,30.5z"/>
	<linearGradient id="SVGID_5_" gradientUnits="userSpaceOnUse" x1="564.4465" y1="19.8413" x2="31.6465" y2="17.5676">
		<stop  offset="0" style="stop-color:#4F67D2"/>
		<stop  offset="1" style="stop-color:#23A8FE"/>
	</linearGradient>
	<path class="st4" d="M32.5,30.5h-26c-3.6,0-6.5-5.4-6.5-12l0,0C0,11.8,2.9,4.6,6.5,4.6h26c3.6,0,6.5,7.2,6.5,13.9l0,0
		C39,25.1,36.1,30.5,32.5,30.5z"/>
</g>
</svg>
